<svg viewBox="0 0 800 800" xmlns="http://www.w3.org/2000/svg">
	<!-- Houten hek achtergrond -->
	<rect x="0" y="0" width="800" height="800" fill="#3a2d1a"/>
	<rect x="120" y="80" width="560" height="600" fill="#5a4630" stroke="#2d2214" stroke-width="12"/>
	<!-- Hek planken -->
	<rect x="140" y="100" width="20" height="560" fill="#6d5436"/>
	<rect x="200" y="100" width="20" height="560" fill="#6d5436"/>
	<rect x="260" y="100" width="20" height="560" fill="#6d5436"/>
	<rect x="320" y="100" width="20" height="560" fill="#6d5436"/>
	<rect x="380" y="100" width="20" height="560" fill="#6d5436"/>
	<rect x="440" y="100" width="20" height="560" fill="#6d5436"/>
	<rect x="500" y="100" width="20" height="560" fill="#6d5436"/>
	<rect x="560" y="100" width="20" height="560" fill="#6d5436"/>
	<!-- Troon rugleuning: stokken in waaiervorm -->
	<g stroke="#bfa76a" stroke-width="10" stroke-linecap="round">
		<line x1="400" y1="500" x2="400" y2="100"/>
		<line x1="400" y1="500" x2="370" y2="120"/>
		<line x1="400" y1="500" x2="430" y2="120"/>
		<line x1="400" y1="500" x2="340" y2="170"/>
		<line x1="400" y1="500" x2="460" y2="170"/>
		<line x1="400" y1="500" x2="310" y2="230"/>
		<line x1="400" y1="500" x2="490" y2="230"/>
		<line x1="400" y1="500" x2="270" y2="320"/>
		<line x1="400" y1="500" x2="530" y2="320"/>
		<line x1="400" y1="500" x2="240" y2="400"/>
		<line x1="400" y1="500" x2="560" y2="400"/>
	</g>
	<!-- Troon zitting -->
	<ellipse cx="400" cy="540" rx="70" ry="30" fill="#bfa76a" stroke="#8c7a4f" stroke-width="6"/>
	<!-- Houtblokken onder troon -->
	<g>
		<rect x="280" y="570" width="30" height="40" fill="#a07c4f"/>
		<rect x="310" y="580" width="30" height="40" fill="#8c6a3f"/>
		<rect x="340" y="590" width="30" height="40" fill="#a07c4f"/>
		<rect x="370" y="600" width="30" height="40" fill="#8c6a3f"/>
		<rect x="400" y="590" width="30" height="40" fill="#a07c4f"/>
		<rect x="430" y="580" width="30" height="40" fill="#8c6a3f"/>
		<rect x="460" y="570" width="30" height="40" fill="#a07c4f"/>
	</g>
</svg>